<svg id="visual" viewBox="0 0 2500 500" width="2500" height="500" xmlns="http://www.w3.org/2000/svg" xmlns:xlink="http://www.w3.org/1999/xlink" version="1.1"><rect x="0" y="0" width="2500" height="500" fill="#53599A"></rect><path d="M0 347L27.8 345.5C55.7 344 111.3 341 166.8 337.7C222.3 334.3 277.7 330.7 333.2 333.7C388.7 336.7 444.3 346.3 500 345C555.7 343.7 611.3 331.3 666.8 323.3C722.3 315.3 777.7 311.7 833.2 291.5C888.7 271.3 944.3 234.7 1000 241.7C1055.7 248.7 1111.3 299.3 1166.8 318.5C1222.3 337.7 1277.7 325.3 1333.2 303C1388.7 280.7 1444.3 248.3 1500 236.7C1555.7 225 1611.3 234 1666.8 247.8C1722.3 261.7 1777.7 280.3 1833.2 298.3C1888.7 316.3 1944.3 333.7 2000 329.7C2055.7 325.7 2111.3 300.3 2166.8 280.5C2222.3 260.7 2277.7 246.3 2333.2 255.3C2388.7 264.3 2444.3 296.7 2472.2 312.8L2500 329L2500 501L2472.2 501C2444.3 501 2388.7 501 2333.2 501C2277.7 501 2222.3 501 2166.8 501C2111.3 501 2055.7 501 2000 501C1944.3 501 1888.7 501 1833.2 501C1777.7 501 1722.3 501 1666.8 501C1611.3 501 1555.7 501 1500 501C1444.3 501 1388.7 501 1333.2 501C1277.7 501 1222.3 501 1166.8 501C1111.3 501 1055.7 501 1000 501C944.3 501 888.7 501 833.2 501C777.7 501 722.3 501 666.8 501C611.3 501 555.7 501 500 501C444.3 501 388.7 501 333.2 501C277.7 501 222.3 501 166.8 501C111.3 501 55.7 501 27.8 501L0 501Z" fill="#1c2a40" stroke-linecap="round" stroke-linejoin="miter"></path></svg>