<svg id="visual" viewBox="0 0 2500 500" width="2500" height="500" xmlns="http://www.w3.org/2000/svg" xmlns:xlink="http://www.w3.org/1999/xlink" version="1.1"><rect x="0" y="0" width="2500" height="500" fill="#53599A"></rect><path d="M0 210L27.8 222.8C55.7 235.7 111.3 261.3 166.8 258.2C222.3 255 277.7 223 333.2 226.7C388.7 230.3 444.3 269.7 500 282.2C555.7 294.7 611.3 280.3 666.8 276.3C722.3 272.3 777.7 278.7 833.2 285.2C888.7 291.7 944.3 298.3 1000 302.7C1055.7 307 1111.3 309 1166.8 290.5C1222.3 272 1277.7 233 1333.2 238.3C1388.7 243.7 1444.3 293.3 1500 321.2C1555.7 349 1611.3 355 1666.8 344.5C1722.3 334 1777.7 307 1833.2 293.3C1888.7 279.7 1944.3 279.3 2000 273.3C2055.7 267.3 2111.3 255.7 2166.8 267.8C2222.3 280 2277.7 316 2333.2 323.5C2388.7 331 2444.3 310 2472.2 299.5L2500 289L2500 501L2472.2 501C2444.3 501 2388.7 501 2333.2 501C2277.7 501 2222.3 501 2166.8 501C2111.3 501 2055.7 501 2000 501C1944.3 501 1888.7 501 1833.2 501C1777.7 501 1722.3 501 1666.8 501C1611.3 501 1555.7 501 1500 501C1444.3 501 1388.7 501 1333.2 501C1277.7 501 1222.3 501 1166.8 501C1111.3 501 1055.7 501 1000 501C944.3 501 888.7 501 833.2 501C777.7 501 722.3 501 666.8 501C611.3 501 555.7 501 500 501C444.3 501 388.7 501 333.2 501C277.7 501 222.3 501 166.8 501C111.3 501 55.7 501 27.8 501L0 501Z" fill="#1c2a40" stroke-linecap="round" stroke-linejoin="miter"></path></svg>