<svg id="visual" viewBox="0 0 2500 500" width="2500" height="500" xmlns="http://www.w3.org/2000/svg" xmlns:xlink="http://www.w3.org/1999/xlink" version="1.1"><rect x="0" y="0" width="2500" height="500" fill="#53599A"></rect><path d="M0 234L27.8 243.8C55.7 253.7 111.3 273.3 166.8 290.7C222.3 308 277.7 323 333.2 330.2C388.7 337.3 444.3 336.7 500 328.7C555.7 320.7 611.3 305.3 666.8 283.5C722.3 261.7 777.7 233.3 833.2 227.7C888.7 222 944.3 239 1000 255.2C1055.7 271.3 1111.3 286.7 1166.8 290C1222.3 293.3 1277.7 284.7 1333.2 285.7C1388.7 286.7 1444.3 297.3 1500 282.7C1555.7 268 1611.3 228 1666.8 229.3C1722.3 230.7 1777.7 273.3 1833.2 299.2C1888.7 325 1944.3 334 2000 317.3C2055.7 300.7 2111.3 258.3 2166.8 259C2222.3 259.7 2277.7 303.3 2333.2 310.3C2388.7 317.3 2444.3 287.7 2472.2 272.8L2500 258L2500 501L2472.2 501C2444.3 501 2388.7 501 2333.2 501C2277.7 501 2222.3 501 2166.8 501C2111.3 501 2055.7 501 2000 501C1944.3 501 1888.7 501 1833.2 501C1777.7 501 1722.3 501 1666.8 501C1611.3 501 1555.7 501 1500 501C1444.3 501 1388.7 501 1333.2 501C1277.7 501 1222.3 501 1166.8 501C1111.3 501 1055.7 501 1000 501C944.3 501 888.7 501 833.2 501C777.7 501 722.3 501 666.8 501C611.3 501 555.7 501 500 501C444.3 501 388.7 501 333.2 501C277.7 501 222.3 501 166.8 501C111.3 501 55.7 501 27.8 501L0 501Z" fill="#1c2a40" stroke-linecap="round" stroke-linejoin="miter"></path></svg>