<svg id="visual" viewBox="0 0 2500 500" width="2500" height="500" xmlns="http://www.w3.org/2000/svg" xmlns:xlink="http://www.w3.org/1999/xlink" version="1.1"><rect x="0" y="0" width="2500" height="500" fill="#53599A"></rect><path d="M0 298L27.8 284.8C55.7 271.7 111.3 245.3 166.8 238.5C222.3 231.7 277.7 244.3 333.2 248.8C388.7 253.3 444.3 249.7 500 255.2C555.7 260.7 611.3 275.3 666.8 286C722.3 296.7 777.7 303.3 833.2 298.5C888.7 293.7 944.3 277.3 1000 285.8C1055.7 294.3 1111.3 327.7 1166.8 315C1222.3 302.3 1277.7 243.7 1333.2 230.3C1388.7 217 1444.3 249 1500 267.3C1555.7 285.7 1611.3 290.3 1666.8 299.7C1722.3 309 1777.7 323 1833.2 313.8C1888.7 304.7 1944.3 272.3 2000 275.3C2055.7 278.3 2111.3 316.7 2166.8 307.7C2222.3 298.7 2277.7 242.3 2333.2 233.2C2388.7 224 2444.3 262 2472.2 281L2500 300L2500 501L2472.2 501C2444.3 501 2388.7 501 2333.2 501C2277.7 501 2222.3 501 2166.8 501C2111.3 501 2055.7 501 2000 501C1944.3 501 1888.7 501 1833.2 501C1777.7 501 1722.3 501 1666.8 501C1611.3 501 1555.7 501 1500 501C1444.3 501 1388.7 501 1333.2 501C1277.7 501 1222.3 501 1166.8 501C1111.3 501 1055.7 501 1000 501C944.3 501 888.7 501 833.2 501C777.7 501 722.3 501 666.8 501C611.3 501 555.7 501 500 501C444.3 501 388.7 501 333.2 501C277.7 501 222.3 501 166.8 501C111.3 501 55.7 501 27.8 501L0 501Z" fill="#1c2a40" stroke-linecap="round" stroke-linejoin="miter"></path></svg>