<svg id="visual" viewBox="0 0 2500 500" width="2500" height="500" xmlns="http://www.w3.org/2000/svg" xmlns:xlink="http://www.w3.org/1999/xlink" version="1.1"><rect x="0" y="0" width="2500" height="500" fill="#53599A"></rect><path d="M0 273L27.8 288C55.7 303 111.3 333 166.8 324.7C222.3 316.3 277.7 269.7 333.2 257.2C388.7 244.7 444.3 266.3 500 267.2C555.7 268 611.3 248 666.8 259C722.3 270 777.7 312 833.2 329.8C888.7 347.7 944.3 341.3 1000 339.3C1055.7 337.3 1111.3 339.7 1166.8 338C1222.3 336.3 1277.7 330.7 1333.2 315.3C1388.7 300 1444.3 275 1500 279.3C1555.7 283.7 1611.3 317.3 1666.8 307.2C1722.3 297 1777.7 243 1833.2 230.5C1888.7 218 1944.3 247 2000 254.5C2055.7 262 2111.3 248 2166.8 237.7C2222.3 227.3 2277.7 220.7 2333.2 223.3C2388.7 226 2444.3 238 2472.2 244L2500 250L2500 501L2472.2 501C2444.3 501 2388.7 501 2333.2 501C2277.7 501 2222.3 501 2166.8 501C2111.3 501 2055.7 501 2000 501C1944.3 501 1888.7 501 1833.2 501C1777.7 501 1722.3 501 1666.8 501C1611.3 501 1555.7 501 1500 501C1444.3 501 1388.7 501 1333.2 501C1277.7 501 1222.3 501 1166.8 501C1111.3 501 1055.7 501 1000 501C944.3 501 888.7 501 833.2 501C777.7 501 722.3 501 666.8 501C611.3 501 555.7 501 500 501C444.3 501 388.7 501 333.2 501C277.7 501 222.3 501 166.8 501C111.3 501 55.7 501 27.8 501L0 501Z" fill="#1c2a40" stroke-linecap="round" stroke-linejoin="miter"></path></svg>