<svg id="visual" viewBox="0 0 2500 500" width="2500" height="500" xmlns="http://www.w3.org/2000/svg" xmlns:xlink="http://www.w3.org/1999/xlink" version="1.1"><rect x="0" y="0" width="2500" height="500" fill="#53599A"></rect><path d="M0 256L27.8 268C55.7 280 111.3 304 166.8 304.8C222.3 305.7 277.7 283.3 333.2 274.2C388.7 265 444.3 269 500 283.3C555.7 297.7 611.3 322.3 666.8 328.5C722.3 334.7 777.7 322.3 833.2 313.2C888.7 304 944.3 298 1000 292.5C1055.7 287 1111.3 282 1166.8 292.3C1222.3 302.7 1277.7 328.3 1333.2 340.8C1388.7 353.3 1444.3 352.7 1500 344C1555.7 335.3 1611.3 318.7 1666.8 303.2C1722.3 287.7 1777.7 273.3 1833.2 276C1888.7 278.7 1944.3 298.3 2000 306.5C2055.7 314.7 2111.3 311.3 2166.8 299.2C2222.3 287 2277.7 266 2333.2 259.2C2388.7 252.3 2444.3 259.7 2472.2 263.3L2500 267L2500 501L2472.2 501C2444.3 501 2388.7 501 2333.2 501C2277.7 501 2222.3 501 2166.8 501C2111.3 501 2055.7 501 2000 501C1944.3 501 1888.7 501 1833.2 501C1777.7 501 1722.3 501 1666.8 501C1611.3 501 1555.7 501 1500 501C1444.3 501 1388.7 501 1333.2 501C1277.7 501 1222.3 501 1166.8 501C1111.3 501 1055.7 501 1000 501C944.3 501 888.7 501 833.2 501C777.7 501 722.3 501 666.8 501C611.3 501 555.7 501 500 501C444.3 501 388.7 501 333.2 501C277.7 501 222.3 501 166.8 501C111.3 501 55.7 501 27.8 501L0 501Z" fill="#1c2a40" stroke-linecap="round" stroke-linejoin="miter"></path></svg>